<svg width="453" height="335" viewBox="0 0 453 335" fill="none" xmlns="http://www.w3.org/2000/svg">
<g clip-path="url(#clip0_16_3306)">
<path d="M132.186 32.9635L136.973 40.4404L154.055 31.9794L162.837 29.2965C163.978 28.9479 165.008 28.3062 165.823 27.4356C166.638 26.565 167.21 25.4959 167.482 24.3351C167.754 23.1744 167.716 21.9627 167.373 20.821C167.029 19.6794 166.392 18.6479 165.524 17.8295C164.238 16.6168 162.531 15.9505 160.764 15.9714C158.996 15.9923 157.305 16.6986 156.048 17.9414L148.678 25.23L132.186 32.9635Z" fill="#A0616A"/>
<path d="M140.265 40.092L133.882 30.1227L109.676 40.7631C107.938 41.5272 106.426 42.727 105.289 44.2463C104.151 45.7657 103.426 47.5529 103.183 49.4347C102.884 51.7551 103.332 54.1104 104.462 56.1592C105.593 58.2081 107.347 59.8439 109.471 60.8296L148.058 78.1672C150.721 79.4034 153.762 79.5501 156.532 78.5759C159.303 77.6017 161.582 75.5839 162.883 72.9534C163.583 71.5387 163.976 69.9926 164.039 68.4157C164.101 66.8388 163.83 65.2665 163.244 63.8011C162.658 62.3358 161.769 61.0101 160.636 59.9105C159.504 58.8109 158.152 57.9619 156.669 57.4188L127.723 47.4074L140.265 40.092Z" fill="#F45800"/>
<path d="M395.737 209.335C395.737 206.341 394.73 203.91 393.494 203.905H56.6009C55.3595 203.91 54.3586 206.341 54.353 209.335V332.608C54.3531 332.886 54.2495 333.154 54.0625 333.36C53.8756 333.566 53.6186 333.695 53.3416 333.722C52.4374 333.809 51.5332 333.889 50.629 333.964C50.6066 333.964 50.5842 333.97 50.5618 333.97C50.0698 334.014 49.5777 334.048 49.0856 334.087H49.08C48.8269 333.619 48.5768 333.148 48.3295 332.672C48.2459 332.512 48.2022 332.334 48.2021 332.153V202.29C48.2021 201.463 48.2357 200.631 48.2916 199.81C48.3714 198.682 48.5114 197.559 48.711 196.446C49.656 191.256 51.792 187.742 54.2188 187.73H395.871C396.225 187.733 396.575 187.807 396.9 187.948C397.377 188.159 397.808 188.461 398.169 188.837C398.659 189.346 399.079 189.919 399.416 190.541C400.613 192.647 401.468 195.787 401.77 199.441C401.77 199.474 401.776 199.508 401.776 199.541C401.854 200.446 401.893 201.368 401.887 202.29L401.966 214.263L402.016 221.403L402.167 243.807L402.223 251.763L402.469 333.444C402.469 333.741 402.351 334.025 402.141 334.234C401.932 334.444 401.647 334.562 401.351 334.562H396.855C396.558 334.562 396.274 334.444 396.064 334.234C395.854 334.025 395.737 333.741 395.737 333.444V209.335Z" fill="#E6E6E6"/>
<path d="M56.7441 270.388L49.4956 269.087L51.0669 240.532L61.7654 242.452L56.7441 270.388Z" fill="#A0616A"/>
<path d="M55.6413 277.989L33.3506 273.99L33.4012 273.708C33.8145 271.409 35.1248 269.368 37.044 268.034C38.9632 266.7 41.334 266.183 43.635 266.596L43.6356 266.596L48.2619 264.24L55.3041 268.689L57.25 269.038L55.6413 277.989Z" fill="#2F2E41"/>
<path d="M232.543 240.248H188.095C186.904 240.247 185.762 239.773 184.919 238.932C184.077 238.09 183.603 236.949 183.602 235.759V195.125C183.603 193.935 184.077 192.794 184.919 191.953C185.762 191.111 186.904 190.638 188.095 190.636H232.543C233.734 190.638 234.876 191.111 235.719 191.953C236.561 192.794 237.035 193.935 237.036 195.125V235.759C237.035 236.949 236.561 238.09 235.719 238.932C234.876 239.773 233.734 240.247 232.543 240.248Z" fill="#3F3D56"/>
<path d="M229.419 236.507H191.219C190.162 236.505 189.148 236.085 188.4 235.338C187.652 234.591 187.231 233.578 187.23 232.521V198.364C187.231 197.307 187.652 196.294 188.4 195.547C189.148 194.799 190.162 194.379 191.219 194.378H229.419C230.476 194.379 231.49 194.799 232.238 195.547C232.986 196.294 233.407 197.307 233.408 198.364V232.521C233.407 233.578 232.986 234.591 232.238 235.338C231.49 236.085 230.476 236.505 229.419 236.507Z" fill="white"/>
<path d="M225.608 204.322H195.03C194.765 204.322 194.512 204.217 194.325 204.03C194.138 203.844 194.033 203.59 194.033 203.326C194.033 203.062 194.138 202.808 194.325 202.621C194.512 202.434 194.765 202.329 195.03 202.329H225.608C225.872 202.329 226.126 202.434 226.313 202.621C226.5 202.808 226.605 203.062 226.605 203.326C226.605 203.59 226.5 203.844 226.313 204.03C226.126 204.217 225.872 204.322 225.608 204.322Z" fill="#F45800"/>
<path d="M225.608 208.26H195.03C194.765 208.26 194.512 208.155 194.325 207.968C194.138 207.781 194.033 207.527 194.033 207.263C194.033 206.999 194.138 206.745 194.325 206.558C194.512 206.372 194.765 206.267 195.03 206.267H225.608C225.872 206.267 226.126 206.372 226.313 206.558C226.5 206.745 226.605 206.999 226.605 207.263C226.605 207.527 226.5 207.781 226.313 207.968C226.126 208.155 225.872 208.26 225.608 208.26Z" fill="#F45800"/>
<path d="M208.285 212.197H195.03C194.765 212.197 194.512 212.092 194.325 211.905C194.138 211.718 194.033 211.465 194.033 211.2C194.033 210.936 194.138 210.683 194.325 210.496C194.512 210.309 194.765 210.204 195.03 210.204H208.285C208.549 210.204 208.803 210.309 208.99 210.496C209.177 210.683 209.282 210.936 209.282 211.2C209.282 211.465 209.177 211.718 208.99 211.905C208.803 212.092 208.549 212.197 208.285 212.197Z" fill="#F45800"/>
<path d="M225.608 220.443H195.03C194.765 220.443 194.512 220.338 194.325 220.151C194.138 219.964 194.033 219.711 194.033 219.447C194.033 219.182 194.138 218.929 194.325 218.742C194.512 218.555 194.765 218.45 195.03 218.45H225.608C225.872 218.45 226.126 218.555 226.313 218.742C226.5 218.929 226.605 219.182 226.605 219.447C226.605 219.711 226.5 219.964 226.313 220.151C226.126 220.338 225.872 220.443 225.608 220.443Z" fill="#E4E4E4"/>
<path d="M225.608 224.38H195.03C194.899 224.381 194.769 224.355 194.648 224.305C194.526 224.255 194.416 224.182 194.323 224.089C194.23 223.997 194.157 223.887 194.106 223.766C194.056 223.645 194.03 223.515 194.03 223.384C194.03 223.253 194.056 223.123 194.106 223.002C194.157 222.881 194.23 222.771 194.323 222.678C194.416 222.586 194.526 222.513 194.648 222.463C194.769 222.413 194.899 222.387 195.03 222.387H225.608C225.872 222.387 226.126 222.492 226.313 222.679C226.5 222.866 226.605 223.12 226.605 223.384C226.605 223.648 226.5 223.902 226.313 224.089C226.126 224.275 225.872 224.38 225.608 224.38Z" fill="#E4E4E4"/>
<path d="M208.285 228.318H195.03C194.765 228.318 194.512 228.213 194.325 228.026C194.138 227.839 194.033 227.585 194.033 227.321C194.033 227.057 194.138 226.803 194.325 226.617C194.512 226.43 194.765 226.325 195.03 226.325H208.285C208.549 226.325 208.803 226.43 208.99 226.617C209.177 226.803 209.282 227.057 209.282 227.321C209.282 227.585 209.177 227.839 208.99 228.026C208.803 228.213 208.549 228.318 208.285 228.318Z" fill="#E4E4E4"/>
<path d="M304.192 131.707H267.891C267.377 131.707 266.885 131.912 266.523 132.275C266.16 132.639 265.956 133.131 265.957 133.644V190.94H306.131V133.644C306.131 133.39 306.081 133.138 305.983 132.902C305.886 132.667 305.743 132.454 305.563 132.274C305.383 132.094 305.169 131.951 304.934 131.854C304.699 131.757 304.446 131.707 304.192 131.707ZM286.163 164.262C285.028 164.257 283.941 163.804 283.138 163.002C282.336 162.199 281.882 161.113 281.877 159.979V153.37C281.878 152.235 282.33 151.147 283.134 150.345C283.938 149.543 285.027 149.092 286.163 149.092C287.299 149.092 288.389 149.543 289.193 150.345C289.997 151.147 290.449 152.235 290.45 153.37V159.979C290.445 161.113 289.991 162.199 289.189 163.002C288.386 163.804 287.299 164.257 286.163 164.262Z" fill="#2F2E41"/>
<path d="M265.833 189.108V194.636C265.833 194.922 265.947 195.197 266.15 195.399C266.353 195.602 266.627 195.716 266.914 195.716H305.174C305.46 195.715 305.735 195.601 305.937 195.398C306.14 195.196 306.254 194.922 306.255 194.636V189.108H265.833Z" fill="#3F3D56"/>
<path d="M364.303 42.2892H209.131C207.798 42.2914 206.52 42.8215 205.577 43.7634C204.634 44.7053 204.104 45.9821 204.102 47.3142V151.937C204.103 153.269 204.633 154.546 205.576 155.488C206.519 156.431 207.797 156.96 209.131 156.962H364.303C365.636 156.96 366.915 156.431 367.858 155.488C368.8 154.546 369.331 153.269 369.332 151.937V47.3142C369.33 45.9821 368.799 44.7053 367.857 43.7634C366.914 42.8215 365.636 42.2914 364.303 42.2892Z" fill="#3F3D56"/>
<path d="M363.008 45.9187H210.427C209.714 45.9203 209.03 46.2046 208.525 46.7095C208.021 47.2143 207.738 47.8984 207.738 48.6116V150.641C207.739 151.353 208.023 152.036 208.527 152.54C209.031 153.044 209.714 153.327 210.427 153.328H363.008C363.721 153.327 364.404 153.044 364.908 152.54C365.412 152.036 365.696 151.353 365.697 150.641V48.6116C365.697 47.8984 365.414 47.2143 364.91 46.7095C364.406 46.2046 363.722 45.9203 363.008 45.9187Z" fill="white"/>
<path d="M333.288 197.64H242.511C242.262 197.64 242.017 197.584 241.793 197.478C241.568 197.371 241.371 197.215 241.214 197.023C241.057 196.83 240.946 196.605 240.888 196.363C240.829 196.122 240.825 195.871 240.877 195.628L242.285 188.943C242.365 188.57 242.571 188.234 242.868 187.993C243.165 187.752 243.536 187.62 243.919 187.619H331.879C332.262 187.62 332.633 187.752 332.93 187.993C333.227 188.234 333.433 188.57 333.513 188.943L334.922 195.628C334.973 195.871 334.969 196.122 334.911 196.363C334.853 196.605 334.741 196.83 334.584 197.023C334.428 197.215 334.23 197.371 334.006 197.478C333.782 197.584 333.536 197.64 333.288 197.64H333.288Z" fill="#2F2E41"/>
<path d="M247.086 188.822H244.836C244.686 188.822 244.563 188.945 244.563 189.095V190.226C244.563 190.376 244.686 190.498 244.836 190.498H247.086C247.237 190.498 247.359 190.376 247.359 190.226V189.095C247.359 188.945 247.237 188.822 247.086 188.822Z" fill="#3F3D56"/>
<path d="M252.678 188.822H250.428C250.277 188.822 250.155 188.945 250.155 189.095V190.226C250.155 190.376 250.277 190.498 250.428 190.498H252.678C252.829 190.498 252.951 190.376 252.951 190.226V189.095C252.951 188.945 252.829 188.822 252.678 188.822Z" fill="#3F3D56"/>
<path d="M258.27 188.822H256.02C255.869 188.822 255.747 188.945 255.747 189.095V190.226C255.747 190.376 255.869 190.498 256.02 190.498H258.27C258.421 190.498 258.543 190.376 258.543 190.226V189.095C258.543 188.945 258.421 188.822 258.27 188.822Z" fill="#3F3D56"/>
<path d="M263.862 188.822H261.612C261.461 188.822 261.339 188.945 261.339 189.095V190.226C261.339 190.376 261.461 190.498 261.612 190.498H263.862C264.012 190.498 264.135 190.376 264.135 190.226V189.095C264.135 188.945 264.012 188.822 263.862 188.822Z" fill="#3F3D56"/>
<path d="M269.453 188.822H267.203C267.052 188.822 266.93 188.945 266.93 189.095V190.226C266.93 190.376 267.052 190.498 267.203 190.498H269.453C269.604 190.498 269.726 190.376 269.726 190.226V189.095C269.726 188.945 269.604 188.822 269.453 188.822Z" fill="#3F3D56"/>
<path d="M275.045 188.822H272.795C272.644 188.822 272.522 188.945 272.522 189.095V190.226C272.522 190.376 272.644 190.498 272.795 190.498H275.045C275.196 190.498 275.318 190.376 275.318 190.226V189.095C275.318 188.945 275.196 188.822 275.045 188.822Z" fill="#3F3D56"/>
<path d="M280.637 188.822H278.387C278.236 188.822 278.114 188.945 278.114 189.095V190.226C278.114 190.376 278.236 190.498 278.387 190.498H280.637C280.787 190.498 280.91 190.376 280.91 190.226V189.095C280.91 188.945 280.787 188.822 280.637 188.822Z" fill="#3F3D56"/>
<path d="M286.228 188.822H283.979C283.828 188.822 283.706 188.945 283.706 189.095V190.226C283.706 190.376 283.828 190.498 283.979 190.498H286.228C286.379 190.498 286.501 190.376 286.501 190.226V189.095C286.501 188.945 286.379 188.822 286.228 188.822Z" fill="#3F3D56"/>
<path d="M291.82 188.822H289.57C289.419 188.822 289.297 188.945 289.297 189.095V190.226C289.297 190.376 289.419 190.498 289.57 190.498H291.82C291.97 190.498 292.093 190.376 292.093 190.226V189.095C292.093 188.945 291.97 188.822 291.82 188.822Z" fill="#3F3D56"/>
<path d="M297.412 188.822H295.162C295.011 188.822 294.889 188.945 294.889 189.095V190.226C294.889 190.376 295.011 190.498 295.162 190.498H297.412C297.562 190.498 297.685 190.376 297.685 190.226V189.095C297.685 188.945 297.562 188.822 297.412 188.822Z" fill="#3F3D56"/>
<path d="M303.003 188.822H300.753C300.603 188.822 300.48 188.945 300.48 189.095V190.226C300.48 190.376 300.603 190.498 300.753 190.498H303.003C303.154 190.498 303.276 190.376 303.276 190.226V189.095C303.276 188.945 303.154 188.822 303.003 188.822Z" fill="#3F3D56"/>
<path d="M308.595 188.822H306.345C306.194 188.822 306.072 188.945 306.072 189.095V190.226C306.072 190.376 306.194 190.498 306.345 190.498H308.595C308.746 190.498 308.868 190.376 308.868 190.226V189.095C308.868 188.945 308.746 188.822 308.595 188.822Z" fill="#3F3D56"/>
<path d="M314.187 188.822H311.937C311.786 188.822 311.664 188.945 311.664 189.095V190.226C311.664 190.376 311.786 190.498 311.937 190.498H314.187C314.338 190.498 314.46 190.376 314.46 190.226V189.095C314.46 188.945 314.338 188.822 314.187 188.822Z" fill="#3F3D56"/>
<path d="M319.778 188.822H317.528C317.378 188.822 317.255 188.945 317.255 189.095V190.226C317.255 190.376 317.378 190.498 317.528 190.498H319.778C319.929 190.498 320.051 190.376 320.051 190.226V189.095C320.051 188.945 319.929 188.822 319.778 188.822Z" fill="#3F3D56"/>
<path d="M325.37 188.822H323.12C322.969 188.822 322.847 188.945 322.847 189.095V190.226C322.847 190.376 322.969 190.498 323.12 190.498H325.37C325.521 190.498 325.643 190.376 325.643 190.226V189.095C325.643 188.945 325.521 188.822 325.37 188.822Z" fill="#3F3D56"/>
<path d="M330.962 188.822H328.712C328.561 188.822 328.439 188.945 328.439 189.095V190.226C328.439 190.376 328.561 190.498 328.712 190.498H330.962C331.113 190.498 331.235 190.376 331.235 190.226V189.095C331.235 188.945 331.113 188.822 330.962 188.822Z" fill="#3F3D56"/>
<path d="M247.02 191.616H244.771C244.62 191.616 244.498 191.738 244.498 191.889V193.019C244.498 193.17 244.62 193.292 244.771 193.292H247.02C247.171 193.292 247.293 193.17 247.293 193.019V191.889C247.293 191.738 247.171 191.616 247.02 191.616Z" fill="#3F3D56"/>
<path d="M252.612 191.616H250.362C250.212 191.616 250.089 191.738 250.089 191.889V193.019C250.089 193.17 250.212 193.292 250.362 193.292H252.612C252.763 193.292 252.885 193.17 252.885 193.019V191.889C252.885 191.738 252.763 191.616 252.612 191.616Z" fill="#3F3D56"/>
<path d="M258.204 191.616H255.954C255.803 191.616 255.681 191.738 255.681 191.889V193.019C255.681 193.17 255.803 193.292 255.954 193.292H258.204C258.355 193.292 258.477 193.17 258.477 193.019V191.889C258.477 191.738 258.355 191.616 258.204 191.616Z" fill="#3F3D56"/>
<path d="M263.795 191.616H261.545C261.395 191.616 261.272 191.738 261.272 191.889V193.019C261.272 193.17 261.395 193.292 261.545 193.292H263.795C263.946 193.292 264.068 193.17 264.068 193.019V191.889C264.068 191.738 263.946 191.616 263.795 191.616Z" fill="#3F3D56"/>
<path d="M269.387 191.616H267.137C266.986 191.616 266.864 191.738 266.864 191.889V193.019C266.864 193.17 266.986 193.292 267.137 193.292H269.387C269.538 193.292 269.66 193.17 269.66 193.019V191.889C269.66 191.738 269.538 191.616 269.387 191.616Z" fill="#3F3D56"/>
<path d="M274.979 191.616H272.729C272.578 191.616 272.456 191.738 272.456 191.889V193.019C272.456 193.17 272.578 193.292 272.729 193.292H274.979C275.13 193.292 275.252 193.17 275.252 193.019V191.889C275.252 191.738 275.13 191.616 274.979 191.616Z" fill="#3F3D56"/>
<path d="M280.571 191.616H278.321C278.17 191.616 278.048 191.738 278.048 191.889V193.019C278.048 193.17 278.17 193.292 278.321 193.292H280.571C280.721 193.292 280.844 193.17 280.844 193.019V191.889C280.844 191.738 280.721 191.616 280.571 191.616Z" fill="#3F3D56"/>
<path d="M286.162 191.616H283.912C283.761 191.616 283.639 191.738 283.639 191.889V193.019C283.639 193.17 283.761 193.292 283.912 193.292H286.162C286.313 193.292 286.435 193.17 286.435 193.019V191.889C286.435 191.738 286.313 191.616 286.162 191.616Z" fill="#3F3D56"/>
<path d="M291.754 191.616H289.504C289.353 191.616 289.231 191.738 289.231 191.889V193.019C289.231 193.17 289.353 193.292 289.504 193.292H291.754C291.905 193.292 292.027 193.17 292.027 193.019V191.889C292.027 191.738 291.905 191.616 291.754 191.616Z" fill="#3F3D56"/>
<path d="M297.346 191.616H295.096C294.945 191.616 294.823 191.738 294.823 191.889V193.019C294.823 193.17 294.945 193.292 295.096 193.292H297.346C297.496 193.292 297.619 193.17 297.619 193.019V191.889C297.619 191.738 297.496 191.616 297.346 191.616Z" fill="#3F3D56"/>
<path d="M302.937 191.616H300.688C300.537 191.616 300.415 191.738 300.415 191.889V193.019C300.415 193.17 300.537 193.292 300.688 193.292H302.937C303.088 193.292 303.21 193.17 303.21 193.019V191.889C303.21 191.738 303.088 191.616 302.937 191.616Z" fill="#3F3D56"/>
<path d="M308.529 191.616H306.279C306.128 191.616 306.006 191.738 306.006 191.889V193.019C306.006 193.17 306.128 193.292 306.279 193.292H308.529C308.679 193.292 308.802 193.17 308.802 193.019V191.889C308.802 191.738 308.679 191.616 308.529 191.616Z" fill="#3F3D56"/>
<path d="M314.121 191.616H311.871C311.72 191.616 311.598 191.738 311.598 191.889V193.019C311.598 193.17 311.72 193.292 311.871 193.292H314.121C314.271 193.292 314.393 193.17 314.393 193.019V191.889C314.393 191.738 314.271 191.616 314.121 191.616Z" fill="#3F3D56"/>
<path d="M319.712 191.616H317.462C317.312 191.616 317.189 191.738 317.189 191.889V193.019C317.189 193.17 317.312 193.292 317.462 193.292H319.712C319.863 193.292 319.985 193.17 319.985 193.019V191.889C319.985 191.738 319.863 191.616 319.712 191.616Z" fill="#3F3D56"/>
<path d="M325.304 191.616H323.054C322.903 191.616 322.781 191.738 322.781 191.889V193.019C322.781 193.17 322.903 193.292 323.054 193.292H325.304C325.455 193.292 325.577 193.17 325.577 193.019V191.889C325.577 191.738 325.455 191.616 325.304 191.616Z" fill="#3F3D56"/>
<path d="M330.896 191.616H328.646C328.495 191.616 328.373 191.738 328.373 191.889V193.019C328.373 193.17 328.495 193.292 328.646 193.292H330.896C331.047 193.292 331.169 193.17 331.169 193.019V191.889C331.169 191.738 331.047 191.616 330.896 191.616Z" fill="#3F3D56"/>
<path d="M293.432 194.968H271.611C271.46 194.968 271.338 195.09 271.338 195.241V196.371C271.338 196.522 271.46 196.644 271.611 196.644H293.432C293.582 196.644 293.705 196.522 293.705 196.371V195.241C293.705 195.09 293.582 194.968 293.432 194.968Z" fill="#3F3D56"/>
<path d="M352.5 325.154L348.188 318.232L347.327 322.188C347.176 322.881 347.025 323.585 346.886 324.283C345.661 323.238 344.358 322.272 343.083 321.344C339.169 318.506 335.257 315.664 331.346 312.818L332.571 319.914C333.326 324.283 334.114 328.741 335.982 332.736C336.189 333.189 336.412 333.636 336.653 334.071H354.848C354.995 333.666 355.096 333.247 355.15 332.82C355.155 332.792 355.156 332.764 355.156 332.736C355.441 330.026 353.942 327.473 352.5 325.154Z" fill="#F0F0F0"/>
<path d="M106.465 325.154L102.154 318.232L101.293 322.188C101.142 322.881 100.991 323.585 100.851 324.283C99.6267 323.238 98.3239 322.272 97.0491 321.344C93.1349 318.506 89.2225 315.664 85.312 312.818L86.5366 319.914C87.2915 324.283 88.08 328.741 89.9475 332.736C90.1545 333.189 90.3781 333.636 90.6187 334.071H108.814C108.96 333.666 109.062 333.247 109.116 332.82C109.12 332.792 109.122 332.764 109.121 332.736C109.407 330.026 107.908 327.473 106.465 325.154Z" fill="#F0F0F0"/>
<path d="M452.334 334.828L298.143 335C297.967 335 297.797 334.93 297.673 334.805C297.548 334.68 297.478 334.511 297.478 334.335C297.478 334.158 297.548 333.989 297.673 333.864C297.797 333.74 297.967 333.669 298.143 333.669L452.334 333.498C452.511 333.498 452.68 333.568 452.805 333.693C452.93 333.817 453 333.987 453 334.163C453 334.339 452.93 334.509 452.805 334.633C452.68 334.758 452.511 334.828 452.334 334.828Z" fill="#CACACA"/>
<path d="M355.338 59.976H212.569C212.421 59.9727 212.279 59.9115 212.176 59.8055C212.072 59.6995 212.014 59.5571 212.014 59.4088C212.014 59.2604 212.072 59.118 212.176 59.012C212.279 58.906 212.421 58.8448 212.569 58.8415H355.338C355.486 58.8448 355.627 58.906 355.731 59.012C355.835 59.118 355.893 59.2604 355.893 59.4088C355.893 59.5571 355.835 59.6995 355.731 59.8055C355.627 59.9115 355.486 59.9727 355.338 59.976Z" fill="#CACACA"/>
<path d="M222.287 55.9451C224.125 55.9451 225.615 54.4235 225.615 52.5465C225.615 50.6695 224.125 49.1479 222.287 49.1479C220.45 49.1479 218.96 50.6695 218.96 52.5465C218.96 54.4235 220.45 55.9451 222.287 55.9451Z" fill="#3F3D56"/>
<path d="M233.782 55.9451C235.619 55.9451 237.109 54.4235 237.109 52.5465C237.109 50.6695 235.619 49.1479 233.782 49.1479C231.944 49.1479 230.455 50.6695 230.455 52.5465C230.455 54.4235 231.944 55.9451 233.782 55.9451Z" fill="#3F3D56"/>
<path d="M245.276 55.9451C247.114 55.9451 248.603 54.4235 248.603 52.5465C248.603 50.6695 247.114 49.1479 245.276 49.1479C243.438 49.1479 241.949 50.6695 241.949 52.5465C241.949 54.4235 243.438 55.9451 245.276 55.9451Z" fill="#3F3D56"/>
<path d="M348.417 49.9904H340.253C340.091 49.9936 339.937 50.0601 339.823 50.1756C339.71 50.2911 339.646 50.4463 339.646 50.6081C339.646 50.7698 339.71 50.9251 339.823 51.0406C339.937 51.1561 340.091 51.2226 340.253 51.2258H348.417C348.579 51.2226 348.733 51.1561 348.847 51.0406C348.96 50.9251 349.023 50.7698 349.023 50.6081C349.023 50.4463 348.96 50.2911 348.847 50.1756C348.733 50.0601 348.579 49.9936 348.417 49.9904Z" fill="#3F3D56"/>
<path d="M348.417 52.309H340.253C340.091 52.3122 339.937 52.3787 339.823 52.4942C339.71 52.6097 339.646 52.765 339.646 52.9267C339.646 53.0885 339.71 53.2437 339.823 53.3592C339.937 53.4747 340.091 53.5412 340.253 53.5444H348.417C348.579 53.5412 348.733 53.4747 348.847 53.3592C348.96 53.2437 349.023 53.0885 349.023 52.9267C349.023 52.765 348.96 52.6097 348.847 52.4942C348.733 52.3787 348.579 52.3122 348.417 52.309Z" fill="#3F3D56"/>
<path d="M348.417 54.6247H340.253C340.091 54.6279 339.937 54.6944 339.823 54.8099C339.71 54.9254 339.646 55.0807 339.646 55.2424C339.646 55.4041 339.71 55.5594 339.823 55.6749C339.937 55.7904 340.091 55.8569 340.253 55.8601H348.417C348.579 55.8569 348.733 55.7904 348.847 55.6749C348.96 55.5594 349.023 55.4041 349.023 55.2424C349.023 55.0807 348.96 54.9254 348.847 54.8099C348.733 54.6944 348.579 54.6279 348.417 54.6247Z" fill="#3F3D56"/>
<path d="M295.481 90.882H277.641C276.301 90.882 275.215 91.9674 275.215 93.3062C275.215 94.645 276.301 95.7304 277.641 95.7304H295.481C296.821 95.7304 297.907 94.645 297.907 93.3062C297.907 91.9674 296.821 90.882 295.481 90.882Z" fill="#F45800"/>
<path d="M307.005 100.579H266.116C264.776 100.579 263.69 101.664 263.69 103.003C263.69 104.342 264.776 105.427 266.116 105.427H307.005C308.345 105.427 309.431 104.342 309.431 103.003C309.431 101.664 308.345 100.579 307.005 100.579Z" fill="#E6E6E6"/>
<path d="M307.005 110.275H266.116C264.776 110.275 263.69 111.361 263.69 112.7C263.69 114.038 264.776 115.124 266.116 115.124H307.005C308.345 115.124 309.431 114.038 309.431 112.7C309.431 111.361 308.345 110.275 307.005 110.275Z" fill="#E6E6E6"/>
<path d="M227.163 147.479C227.167 149.476 226.811 151.457 226.112 153.328H210.427C209.714 153.327 209.031 153.044 208.527 152.54C208.023 152.036 207.739 151.353 207.738 150.641V130.93C208.614 130.789 209.5 130.718 210.388 130.718C212.591 130.718 214.773 131.151 216.808 131.993C218.843 132.836 220.693 134.07 222.25 135.627C223.808 137.183 225.044 139.031 225.887 141.064C226.73 143.098 227.163 145.278 227.163 147.479Z" fill="#E6E6E6"/>
<path d="M196.217 163.063C195.982 169.851 181.533 188.165 173.934 190.791C172.642 191.238 171.887 191.484 171.887 191.484L169.242 190.685L137.213 181.002C131.605 184.299 114.875 185.975 101.147 186.813C90.2208 187.478 81.1902 187.612 81.1902 187.612C77.9668 212.106 71.6144 235.536 60.898 257.482L48.0371 255.248L60.187 173.499C60.4494 171.734 61.2251 170.084 62.4179 168.756C63.6106 167.427 65.1678 166.478 66.8959 166.027L154.296 143.184C154.296 143.184 159.116 142.313 169.282 147.212C186.018 155.28 196.385 158.124 196.217 163.063Z" fill="#2F2E41"/>
<path d="M166.163 317.313L159.632 320.713L143.398 297.16L153.038 292.141L166.163 317.313Z" fill="#A0616A"/>
<path d="M169.944 324.001L149.859 334.456L149.727 334.203C148.647 332.131 148.434 329.716 149.136 327.488C149.839 325.26 151.398 323.402 153.471 322.322L153.471 322.322L155.69 317.631L163.985 316.849L165.738 315.936L169.944 324.001Z" fill="#2F2E41"/>
<path d="M179.516 161.749C182.448 167.878 178.104 190.79 172.579 196.628L171.113 197.624L170.617 197.882C167.303 209.083 131.738 241.843 131.738 241.843C143.751 257.133 151.238 275.933 156.015 296.834L145.343 301.76L106.243 243.437C105.218 241.91 104.681 240.108 104.701 238.27C104.721 236.431 105.298 234.642 106.355 233.137L122.307 210.434L148.299 160.129C166.872 159.557 177.381 157.292 179.516 161.749Z" fill="#2F2E41"/>
<path d="M195.318 165.447C139.182 156.917 134.067 149.246 133.518 149.383L133.031 149.504L141.164 135.768L144.147 132.247L141.852 130.609L142.763 123.802C143.473 121.044 144.048 117.797 143.741 117.362C143.109 116.662 141.7 115.39 141.686 115.377L141.505 115.213L143.619 110.284L146.451 70.8775L153.751 56.3369L168.818 47.4122L182.098 47.5729L193.769 58.3889C198.724 60.7704 202.754 64.7188 205.234 69.6219C207.714 74.525 208.506 80.1087 207.487 85.5073L201.559 116.793L199.378 132.919L202.937 136.474L200.723 138.687L199.406 146.22L200.755 154.752C201.808 162.504 197.122 162.966 196.776 163.063C196.755 163.069 195.737 165.731 195.694 165.731C195.586 165.731 195.577 165.486 195.318 165.447Z" fill="#F45800"/>
<path d="M192.371 196.552C193.012 195.927 193.508 195.168 193.824 194.33C194.14 193.492 194.268 192.595 194.2 191.703C194.131 190.81 193.868 189.943 193.428 189.163C192.988 188.383 192.382 187.709 191.653 187.189L197.811 166.312L186.985 169.615L182.797 188.933C182.002 190.215 181.706 191.743 181.964 193.229C182.223 194.714 183.017 196.053 184.197 196.992C185.377 197.931 186.861 198.405 188.368 198.324C189.874 198.243 191.299 197.613 192.371 196.552V196.552Z" fill="#A0616A"/>
<path d="M193.371 182.067L181.669 176.822L191.055 137.876L173.575 95.4779C172.711 93.3822 172.319 91.1221 172.428 88.8581C172.536 86.5942 173.142 84.3819 174.203 82.3782C175.263 80.3746 176.752 78.6288 178.564 77.2647C180.376 75.9007 182.466 74.9519 184.686 74.4857C188.696 73.6481 192.876 74.4343 196.307 76.6719C199.738 78.9095 202.141 82.4157 202.987 86.4211L213.619 136.965L193.371 182.067Z" fill="#F45800"/>
<path d="M147.167 33.2949L151.444 15.5208C151.591 14.9128 151.974 14.3879 152.508 14.0613C153.041 13.7347 153.683 13.633 154.292 13.7786L158.169 14.71C158.777 14.8569 159.303 15.239 159.63 15.7724C159.956 16.3057 160.058 16.9469 159.913 17.5552L155.635 35.3294C155.488 35.9373 155.106 36.4622 154.572 36.7888C154.038 37.1154 153.396 37.2171 152.788 37.0715L148.911 36.1401C148.302 35.9932 147.777 35.6111 147.45 35.0778C147.123 34.5444 147.021 33.9032 147.167 33.2949Z" fill="#3F3D56"/>
<path d="M154.527 14.7941C154.199 14.7157 153.853 14.7705 153.565 14.9465C153.278 15.1225 153.072 15.4054 152.992 15.733L148.715 33.5071C148.637 33.8349 148.692 34.1804 148.868 34.4679C149.044 34.7553 149.327 34.9612 149.655 35.0404L153.532 35.9718C153.86 36.0502 154.206 35.9954 154.493 35.8194C154.781 35.6434 154.987 35.3606 155.066 35.033L159.344 17.2588C159.422 16.931 159.367 16.5855 159.191 16.2981C159.015 16.0106 158.732 15.8047 158.404 15.7256L154.527 14.7941Z" fill="#F45800"/>
<path d="M172.466 44.5038C182.952 44.5038 191.453 36.0098 191.453 25.5319C191.453 15.0539 182.952 6.55988 172.466 6.55988C161.979 6.55988 153.478 15.0539 153.478 25.5319C153.478 36.0098 161.979 44.5038 172.466 44.5038Z" fill="#A0616A"/>
<path d="M181.224 38.2173L181.907 34.3746C182.328 31.8263 181.891 29.2107 180.666 26.9367C179.44 24.6627 177.495 22.8586 175.135 21.8063L174.548 21.5229L175.031 21.2648C175.185 21.1827 175.305 21.0495 175.371 20.8882C175.436 20.7269 175.443 20.5477 175.391 20.3818C175.338 20.2158 175.229 20.0736 175.082 19.9797C174.935 19.8858 174.76 19.8462 174.587 19.8678L174.038 19.936C173.664 19.9818 173.285 19.9185 172.946 19.7537C172.607 19.589 172.323 19.3298 172.128 19.0075C171.934 18.6852 171.836 18.3134 171.848 17.9371C171.86 17.5607 171.98 17.1958 172.195 16.8864C170.299 17.6711 168.277 18.1057 166.226 18.1688C163.258 18.1465 160.679 16.7009 159.656 14.4857C159.407 13.935 159.254 13.3458 159.203 12.7436C156.068 13.978 154.377 17.6783 154.36 17.7171L153.433 19.7838L153.829 17.5539C153.841 17.486 155.055 10.7325 156.814 6.54254C158.706 2.0375 166.582 -0.336963 178.412 0.0386826C189.968 0.401506 192.531 13.5658 192.751 14.8395C196.034 17.9956 194.841 23.971 193.831 27.2667C192.196 32.6041 188.97 37.915 187.192 38.1946C187.032 38.2245 186.868 38.2066 186.719 38.1433C186.57 38.0799 186.443 37.9739 186.354 37.8386C186.176 37.5559 185.94 37.3141 185.662 37.1293C185.383 36.9445 185.069 36.821 184.739 36.7668C183.302 36.5627 181.819 37.7396 181.804 37.7513L181.224 38.2173Z" fill="#2F2E41"/>
<path d="M154.857 334.828L0.665821 335C0.489576 334.999 0.320727 334.929 0.196283 334.804C0.0718393 334.68 0.00195312 334.511 0.00195312 334.335C0.00195312 334.159 0.0718393 333.99 0.196283 333.865C0.320727 333.74 0.489576 333.67 0.665821 333.669L154.857 333.498C155.033 333.498 155.202 333.568 155.327 333.693C155.452 333.817 155.522 333.987 155.522 334.163C155.522 334.339 155.452 334.509 155.327 334.633C155.202 334.758 155.033 334.828 154.857 334.828Z" fill="#CACACA"/>
</g>
<defs>
<clipPath id="clip0_16_3306">
<rect width="453" height="335" fill="white"/>
</clipPath>
</defs>
</svg>
